<svg width="23" height="23" viewBox="0 0 23 23" fill="none" xmlns="http://www.w3.org/2000/svg">
<path d="M7.13235 14.4982V8.71644C7.13235 3.47865 19.5021 3.47859 19.5021 8.7165V14.4982C19.5021 14.6304 19.5505 14.7576 19.6381 14.8566L22.5468 18.1411C23.1653 18.8396 22.6695 19.941 21.7365 19.941H4.89794C3.96499 19.941 3.46912 18.8396 4.08765 18.1411L6.99632 14.8566C7.08397 14.7576 7.13235 14.6304 7.13235 14.4982Z" fill="#6C5FBC"/>
<path d="M4.13235 13.4985V7.71668C4.13235 2.4789 16.5021 2.47884 16.5021 7.71675V13.4985C16.5021 13.6307 16.5505 13.7578 16.6381 13.8568L19.5468 17.1413C20.1653 17.8398 19.6695 18.9413 18.7365 18.9413H1.89794C0.964987 18.9413 0.469124 17.8398 1.08765 17.1413L3.99632 13.8568C4.08397 13.7578 4.13235 13.6307 4.13235 13.4985Z" fill="#DBD9EE"/>
<path fill-rule="evenodd" clip-rule="evenodd" d="M14.9683 4.06355C16.2962 4.81327 17.3137 6.02685 17.3137 7.71675V13.3954L20.1544 16.6032C21.2368 17.8255 20.3691 19.753 18.7364 19.753H1.89782C0.26514 19.753 -0.602615 17.8255 0.479798 16.6032L3.32046 13.3954V7.71668C3.32046 6.02681 4.338 4.81324 5.6659 4.06353C6.97907 3.32214 8.67265 2.97656 10.3171 2.97656C11.9616 2.97656 13.6551 3.32214 14.9683 4.06355ZM6.46409 5.4773C5.47267 6.03704 4.94399 6.78766 4.94399 7.71668V13.4985C4.94399 13.8297 4.82254 14.1481 4.60392 14.395L1.69524 17.6795C1.54061 17.8541 1.66458 18.1295 1.89782 18.1295H18.7364C18.9696 18.1295 19.0936 17.8541 18.939 17.6795L16.0303 14.395L16.638 13.8568L16.0303 14.395C15.8117 14.1481 15.6902 13.8297 15.6902 13.4985V7.71675C15.6902 6.78769 15.1615 6.03706 14.1701 5.47731C13.1639 4.90924 11.7651 4.60009 10.3171 4.60009C8.86911 4.60009 7.47026 4.90924 6.46409 5.4773Z" fill="#6C5FBC"/>
<path d="M12.4818 2.16471C12.4818 3.36024 11.5126 4.32941 10.317 4.32941C9.12152 4.32941 8.15234 3.36024 8.15234 2.16471C8.15234 0.969172 9.12152 0 10.317 0C11.5126 0 12.4818 0.969172 12.4818 2.16471Z" fill="#6C5FBC"/>
<path fill-rule="evenodd" clip-rule="evenodd" d="M5.71704 18.1296H14.9166V18.9414C14.9166 20.0618 14.3963 21.1057 13.5236 21.8538C12.6547 22.5985 11.4996 23.0002 10.3166 23.0002C9.13908 23.0002 7.9555 22.6018 7.08276 21.8538C6.19677 21.0943 5.71704 20.0452 5.71704 18.9414L5.71704 18.1296ZM7.50074 19.7532C7.6321 20.072 7.84457 20.3684 8.13934 20.6211C8.68747 21.0909 9.4847 21.3767 10.3166 21.3767C11.143 21.3767 11.915 21.0942 12.467 20.6211C12.7657 20.365 12.9842 20.0679 13.1212 19.7532H7.50074Z" fill="#6C5FBC"/>
</svg>
