<svg width="21" height="23" viewBox="0 0 21 23" fill="none" xmlns="http://www.w3.org/2000/svg">
<path fill-rule="evenodd" clip-rule="evenodd" d="M14.9683 4.06355C16.2962 4.81327 17.3137 6.02685 17.3137 7.71675V13.3954L20.1544 16.6032C21.2368 17.8255 20.3691 19.753 18.7364 19.753H1.89782C0.26514 19.753 -0.602615 17.8255 0.479798 16.6032L3.32046 13.3954V7.71668C3.32046 6.02681 4.338 4.81324 5.6659 4.06353C6.97907 3.32214 8.67265 2.97656 10.3171 2.97656C11.9616 2.97656 13.6551 3.32214 14.9683 4.06355ZM6.46409 5.4773C5.47267 6.03704 4.94399 6.78766 4.94399 7.71668V13.4985C4.94399 13.8297 4.82254 14.1481 4.60392 14.395L1.69524 17.6795C1.54061 17.8541 1.66458 18.1295 1.89782 18.1295H18.7364C18.9696 18.1295 19.0936 17.8541 18.939 17.6795L16.0303 14.395L16.638 13.8568L16.0303 14.395C15.8117 14.1481 15.6902 13.8297 15.6902 13.4985V7.71675C15.6902 6.78769 15.1615 6.03706 14.1701 5.47731C13.1639 4.90924 11.7651 4.60009 10.3171 4.60009C8.86911 4.60009 7.47026 4.90924 6.46409 5.4773Z" fill="#CED0DE"/>
<path d="M12.4818 2.16471C12.4818 3.36024 11.5126 4.32941 10.317 4.32941C9.12152 4.32941 8.15234 3.36024 8.15234 2.16471C8.15234 0.969172 9.12152 0 10.317 0C11.5126 0 12.4818 0.969172 12.4818 2.16471Z" fill="#CED0DE"/>
<path d="M14.1048 18.9414C14.1048 19.8026 13.7057 20.6285 12.9953 21.2374C12.2849 21.8464 11.3213 22.1885 10.3166 22.1885C9.31189 22.1885 8.32149 21.8464 7.61106 21.2374C6.90062 20.6285 6.52881 19.8026 6.52881 18.9414H10.3166H14.1048Z" fill="white"/>
<path fill-rule="evenodd" clip-rule="evenodd" d="M5.71704 18.1294H14.9166V18.9412C14.9166 20.0616 14.3963 21.1054 13.5236 21.8535C12.6547 22.5983 11.4996 23 10.3166 23C9.13908 23 7.9555 22.6016 7.08276 21.8535C6.19677 21.0941 5.71704 20.045 5.71704 18.9412L5.71704 18.1294ZM7.50074 19.7529C7.6321 20.0717 7.84457 20.3682 8.13934 20.6208C8.68747 21.0907 9.4847 21.3765 10.3166 21.3765C11.143 21.3765 11.915 21.094 12.467 20.6208C12.7657 20.3648 12.9842 20.0677 13.1212 19.7529H7.50074Z" fill="#CED0DE"/>
</svg>
