<svg width="172" height="172" viewBox="0 0 172 172" fill="none" xmlns="http://www.w3.org/2000/svg">
<path d="M85.0278 91.2515C83.6842 90.3836 81.5027 89.9573 79.0059 90.4943C75.1257 91.3663 72.8598 94.0181 73.3021 95.9008C73.6731 97.7989 76.8443 99.356 80.7244 98.484C84.5766 97.6554 86.8705 94.9603 86.4282 93.0775C86.3181 92.3921 85.8079 91.7554 85.0278 91.2515Z" fill="#FF94C7"/>
<path d="M139.651 78.0091L137.7 76.7492L141.255 63.259C141.661 61.6788 141.035 59.9848 139.605 59.0609L87.5964 25.4655C86.1662 24.5417 84.3648 24.6679 83.0915 25.6882L72.2559 34.4751L70.3055 33.2152C68.5285 32.0674 66.1031 32.5891 64.9552 34.3661L56.3324 47.715C55.1566 49.5353 55.7063 51.9174 57.4832 53.0653L61.1238 55.4169L41.1024 103.909C38.4498 110.488 41.1824 118.334 47.6835 122.533L67.5336 135.356C74.0347 139.555 82.3106 138.82 87.2169 133.697L123.188 95.5074L126.828 97.8591C128.605 99.0069 131.003 98.5286 132.179 96.7082L140.801 83.3593C141.949 81.5824 141.428 79.1569 139.651 78.0091ZM85.7374 33.4785L133.065 64.0502L130.852 72.3259L79.1036 38.8985L85.7374 33.4785ZM72.1044 105.077C71.5283 104.828 70.9801 104.535 70.4601 104.199C67.9896 102.604 66.2805 100.21 65.7128 97.5703C65.0069 94.2888 66.0158 90.825 68.437 88.0278C70.6188 85.506 73.8129 83.6994 77.3797 82.9322C85.2981 81.2289 92.6372 84.9869 93.9902 91.4506C95.3866 97.9422 90.2697 104.342 82.3513 106.045C78.7845 106.813 75.1302 106.479 72.1044 105.077ZM127.777 89.2583L64.9332 48.6639L69.3566 41.8161L132.201 82.4105L127.777 89.2583Z" fill="#FF94C7"/>
</svg>
