<svg width="25" height="24" viewBox="0 0 25 24" fill="none" xmlns="http://www.w3.org/2000/svg">
<path fill-rule="evenodd" clip-rule="evenodd" d="M10.2853 1.21133C10.9571 -0.403779 13.245 -0.403773 13.9168 1.21133L16.1824 6.65855C16.2229 6.75582 16.3144 6.82228 16.4194 6.8307L22.3001 7.30215C24.0437 7.44194 24.7508 9.61793 23.4223 10.7559L18.9418 14.5939C18.8618 14.6625 18.8268 14.77 18.8513 14.8725L20.2202 20.6111C20.626 22.3126 18.775 23.6574 17.2822 22.7456L12.2475 19.6704C12.1576 19.6155 12.0445 19.6155 11.9546 19.6704L6.91989 22.7456C5.42709 23.6574 3.57609 22.3126 3.98196 20.6111L5.35082 14.8725C5.37526 14.77 5.34032 14.6625 5.26032 14.5939L0.779821 10.7559C-0.548651 9.61792 0.158378 7.44194 1.90201 7.30215L7.78274 6.8307C7.88775 6.82228 7.97923 6.75582 8.01969 6.65855L10.2853 1.21133ZM12.3604 1.85865C12.2645 1.62792 11.9376 1.62792 11.8417 1.85865L9.57604 7.30587C9.29284 7.98676 8.65252 8.45198 7.91744 8.51091L2.03672 8.98236C1.78762 9.00233 1.68662 9.31319 1.8764 9.47576L6.3569 13.3138C6.91694 13.7935 7.16153 14.5463 6.99042 15.2636L5.62156 21.0022C5.56358 21.2452 5.82801 21.4374 6.04126 21.3071L11.076 18.2319C11.7053 17.8475 12.4968 17.8475 13.1261 18.2319L18.1608 21.3071C18.3741 21.4374 18.6385 21.2452 18.5806 21.0022L17.2117 15.2636C17.0406 14.5463 17.2852 13.7935 17.8452 13.3138L22.3257 9.47576C22.5155 9.31319 22.4145 9.00233 22.1654 8.98236L16.2847 8.51091C15.5496 8.45198 14.9093 7.98676 14.6261 7.30587L12.3604 1.85865Z" fill="#6C5FBC"/>
</svg>
