<svg width="22" height="22" viewBox="0 0 22 22" fill="none" xmlns="http://www.w3.org/2000/svg">
<g clip-path="url(#clip0_117_6315)">
<path d="M11.2219 0.916992C5.65994 0.916992 1.13898 5.42434 1.13898 11C1.13898 16.5623 5.64627 21.083 11.2219 21.083C16.784 21.083 21.3047 16.5757 21.3047 11C21.3047 5.42434 16.784 0.916992 11.2219 0.916992ZM11.2219 14.3428C9.37244 14.3428 7.86545 12.8358 7.86545 10.9863C7.86545 9.13689 9.37244 7.62988 11.2219 7.62988C13.0713 7.62988 14.5783 9.13689 14.5783 10.9863C14.5783 12.8497 13.0715 14.3428 11.2219 14.3428Z" fill="#EDB66B"/>
<path d="M6.67092 14.2876C6.42176 14.2876 6.21198 14.1957 6.05445 14.0385C5.68714 13.658 5.70026 13.0024 5.72652 12.2287C5.73965 11.5597 5.7659 10.7203 5.4511 10.3926C5.38546 10.3139 5.25446 10.2222 4.95279 10.2091H4.90027C4.57235 10.2091 4.33632 10.2748 4.20504 10.4189C3.94275 10.6943 3.98213 11.3108 4.00839 11.8091C4.04777 12.3337 4.07403 12.7929 3.77236 13.0552C3.54945 13.265 3.24778 13.37 2.91986 13.37C2.27713 13.37 1.51652 12.9242 1.26736 12.3996C1.24138 12.3468 1.22825 12.3074 1.22825 12.2549L1.21513 12.1237C1.17574 11.6253 1.12323 11.0745 1.12323 10.8385C1.12323 5.27757 5.64775 0.766113 11.1952 0.766113C16.7426 0.766113 21.2674 5.29069 21.2674 10.8385C21.2674 11.0614 21.2542 11.2974 21.2411 11.5206C21.1886 12.2155 20.6246 12.7533 19.9428 12.7533C19.7987 12.7533 19.6411 12.727 19.497 12.6745C18.8411 12.4253 18.2903 11.9533 17.7657 11.494C17.0051 10.8251 16.2836 10.2088 15.2608 10.1826C14.618 10.1695 14.0409 9.81528 13.7395 9.26444C13.0052 7.90047 12.9133 7.84796 11.0642 7.84796C7.65443 7.84796 7.65443 9.76276 7.65443 10.3924C7.65443 10.7466 7.68068 11.1267 7.69381 11.494C7.75945 12.5695 7.81196 13.5136 7.35275 13.9991C7.20862 14.1829 6.95946 14.2876 6.67092 14.2876Z" fill="#86522C"/>
<path d="M11.2216 1.19914C16.5461 1.19914 20.874 5.51394 20.874 10.8516C20.874 11.0746 20.8608 11.2975 20.8477 11.5075C20.8083 11.9796 20.415 12.3338 19.9823 12.3338C19.8904 12.3338 19.7857 12.3206 19.6938 12.2813C18.2248 11.7304 17.2676 9.80249 15.3137 9.76337C14.8416 9.75025 14.3824 9.48796 14.1595 9.06813C13.3333 7.52064 13.0579 7.42874 11.1037 7.42874C8.92662 7.42874 7.261 8.1631 7.261 10.3927C7.261 11.9927 7.6677 13.855 6.68392 13.855C5.38561 13.855 7.18223 9.84187 4.97918 9.78936H4.91354C2.77586 9.78936 3.95629 12.3338 3.51049 12.7533C3.35295 12.8977 3.1563 12.95 2.94653 12.95C2.42195 12.95 1.84487 12.5827 1.68733 12.2287C1.66107 11.9533 1.59543 11.1271 1.59543 10.8516C1.56918 5.51394 5.89705 1.19914 11.2216 1.19914ZM11.2216 0.333496C5.42499 0.333496 0.716675 5.04187 0.716675 10.8385C0.716675 11.0877 0.769187 11.6516 0.808571 12.1631L0.821699 12.2941C0.834827 12.3991 0.861083 12.5039 0.900467 12.5958C1.22839 13.2776 2.12028 13.8025 2.9334 13.8025C3.36608 13.8025 3.75964 13.6581 4.07444 13.3827C4.53338 12.9762 4.49399 12.3729 4.45461 11.7827C4.44148 11.481 4.38897 10.8645 4.53338 10.7204C4.55963 10.6941 4.67751 10.6416 4.91354 10.6416H4.95293C4.99231 10.6416 5.11019 10.6416 5.14958 10.681C5.34622 10.8776 5.31997 11.7433 5.30684 12.2153C5.28058 13.0416 5.26745 13.8285 5.75265 14.3268C5.98868 14.576 6.3166 14.7072 6.68392 14.7072C7.09061 14.7072 7.44452 14.5628 7.70681 14.2746C8.2839 13.6581 8.23138 12.6352 8.16574 11.4547C8.13949 11.1005 8.12636 10.7204 8.12636 10.3793C8.12636 9.7497 8.12636 8.26785 11.1034 8.26785C12.769 8.26785 12.769 8.26785 13.3984 9.46143C13.7657 10.1564 14.5 10.5894 15.2869 10.6025C16.1525 10.6156 16.7821 11.1662 17.5165 11.8089C18.0804 12.2941 18.6575 12.8058 19.3787 13.0681C19.5622 13.1338 19.7723 13.1732 19.9689 13.1732C20.874 13.1732 21.6346 12.4648 21.6868 11.5469C21.6999 11.3109 21.7131 11.0617 21.7131 10.8257C21.7267 5.055 17.0184 0.333496 11.2216 0.333496Z" fill="#4C2F1B"/>
<path d="M12.6692 20.2904C12.7422 20.4813 13.042 20.5439 13.3387 20.4301C13.6355 20.3166 13.8168 20.0699 13.7438 19.879C13.6707 19.6881 13.371 19.6258 13.0742 19.7393C12.7775 19.853 12.5962 20.0997 12.6692 20.2904Z" fill="#E3A358"/>
<path d="M18.1972 16.7586C18.325 17.0923 18.6357 17.3269 19.0123 17.3743C19.3889 17.4213 19.774 17.2739 20.0229 16.9875C20.2717 16.7009 20.3464 16.3188 20.2187 15.9851C20.091 15.6512 19.7803 15.4168 19.4037 15.3695C19.027 15.3224 18.6417 15.4699 18.3928 15.7562C18.1439 16.0428 18.0695 16.4249 18.1972 16.7586Z" fill="#E3A358"/>
<path d="M8.65109 20.9212C8.77882 21.2549 9.08951 21.4895 9.46612 21.5369C9.84273 21.5839 10.2281 21.4365 10.477 21.1501C10.7259 20.8635 10.8005 20.4814 10.6728 20.1477C10.5451 19.8141 10.2344 19.5794 9.85777 19.5321C9.48116 19.485 9.0958 19.6324 8.84692 19.9188C8.59803 20.2054 8.52337 20.5875 8.65109 20.9212Z" fill="#E3A358"/>
<path d="M6.54979 19.3797C6.75026 19.4251 6.95101 19.3985 7.07682 19.3096C7.20236 19.2208 7.23354 19.0835 7.1586 18.9489C7.08366 18.8146 6.91409 18.7036 6.71361 18.6582C6.51314 18.6125 6.31239 18.6393 6.18658 18.7282C6.06104 18.8171 6.02986 18.9544 6.1048 19.0887C6.17947 19.2232 6.34931 19.334 6.54979 19.3797Z" fill="#E3A358"/>
<path d="M10.8414 15.3078C11.0085 15.3459 11.1715 15.3428 11.2691 15.2996C11.3667 15.2564 11.384 15.1801 11.3148 15.0991C11.2453 15.0182 11.0995 14.9449 10.9324 14.9069C10.7653 14.8689 10.6023 14.8719 10.5047 14.9151C10.407 14.9583 10.3898 15.0346 10.459 15.1156C10.5285 15.1968 10.6742 15.2698 10.8414 15.3078Z" fill="#E3A358"/>
<path d="M3.29469 16.2478C3.42378 16.2771 3.55315 16.2582 3.63465 16.1986C3.71616 16.1387 3.73667 16.0471 3.68935 15.9582C3.64176 15.869 3.53318 15.7963 3.40436 15.767C3.27527 15.7378 3.14591 15.7564 3.06468 15.8163C2.98317 15.8759 2.96239 15.9678 3.00998 16.0567C3.05702 16.1456 3.16587 16.2186 3.29469 16.2478Z" fill="#E3A358"/>
<path d="M8.49103 14.3425C8.66115 14.4579 8.84166 14.5301 8.96474 14.5318C9.08781 14.5334 9.13486 14.4642 9.08781 14.3504C9.04104 14.2364 8.9073 14.0952 8.73718 13.9798C8.56707 13.8644 8.38656 13.7922 8.26321 13.7906C8.14013 13.7889 8.09336 13.8581 8.14013 13.9719C8.18717 14.0859 8.32092 14.2271 8.49103 14.3425Z" fill="#E3A358"/>
<path d="M11.2222 21.6668C5.34031 21.6668 0.55542 16.8819 0.55542 11.0004C0.55542 5.11845 5.34031 0.333496 11.2222 0.333496C17.1039 0.333496 21.8888 5.11845 21.8888 11.0004C21.8888 16.8819 17.1036 21.6668 11.2222 21.6668ZM11.2222 1.50081C5.99179 1.50081 1.73667 5.75626 1.73667 10.9865C1.73667 16.2167 5.99207 20.4722 11.2222 20.4722C16.4524 20.4722 20.7078 16.217 20.7078 10.9865C20.7078 5.75599 16.4524 1.50081 11.2222 1.50081ZM11.2222 14.9403C9.04953 14.9403 7.28217 13.1729 7.28217 11.0004C7.28217 8.82033 9.04953 7.04666 11.2222 7.04666C13.3946 7.04666 15.162 8.81404 15.162 10.9868C15.162 13.1666 13.3946 14.9403 11.2222 14.9403ZM11.2222 8.22737C9.70074 8.22737 8.46315 9.46525 8.46315 10.9865C8.46315 12.5077 9.70101 13.7456 11.2222 13.7456C12.7434 13.7456 13.9813 12.5077 13.9813 10.9865C13.981 9.46525 12.7434 8.22737 11.2222 8.22737Z" fill="#4C2F1B"/>
<path d="M11.7975 5.49317L9.49595 3.97248C9.39995 3.91751 9.38627 3.79443 9.44097 3.69843L9.70135 3.31498C9.75605 3.21898 9.8794 3.2053 9.9754 3.26001L12.2769 4.78069C12.3729 4.83566 12.3866 4.95901 12.3316 5.05474L12.0712 5.43847C12.0168 5.53419 11.8935 5.54787 11.7975 5.49317Z" fill="#DB79AD"/>
<path d="M2.65973 7.90403L3.26252 6.58902C3.30355 6.49302 3.42689 6.452 3.52289 6.49302L3.94764 6.68475C4.04364 6.72578 4.08466 6.84913 4.04364 6.94513L3.44084 8.26013C3.39954 8.35613 3.27647 8.39716 3.18047 8.35613L2.75572 8.16441C2.65973 8.10943 2.60502 8.00003 2.65973 7.90403ZM17.6197 7.79436L16.4688 6.90383C16.3867 6.83545 16.3728 6.7121 16.4277 6.62978L16.7155 6.26C16.7838 6.17795 16.9072 6.164 16.9895 6.21897L18.1404 7.1095C18.2225 7.17815 18.2364 7.30123 18.1814 7.38355L17.8937 7.7536C17.8253 7.84933 17.702 7.86273 17.6197 7.79436Z" fill="#F6B173"/>
<path d="M14.729 5.93113L13.9345 4.1364C13.8935 4.0404 13.9345 3.91705 14.0305 3.87602L14.455 3.68429C14.551 3.64327 14.6743 3.68429 14.7153 3.78029L15.5099 5.57503C15.5509 5.67103 15.5099 5.79411 15.4139 5.8354L14.9891 6.02713C14.8937 6.06816 14.784 6.02686 14.729 5.93113ZM5.90643 9.2739L5.11191 7.47917C5.07088 7.38317 5.11191 7.26009 5.2079 7.21879L5.63265 7.02706C5.72865 6.98604 5.85173 7.02706 5.89302 7.12306L6.68754 8.9178C6.72857 9.0138 6.68754 9.13715 6.59154 9.17817L6.1668 9.3699C6.0574 9.4246 5.94772 9.3699 5.90643 9.2739Z" fill="#F7E774"/>
<path d="M6.27658 5.56135L7.09872 3.78029C7.13975 3.68429 7.2631 3.64327 7.35909 3.68429L7.78384 3.87602C7.87984 3.91705 7.92086 4.0404 7.87984 4.1364L7.0577 5.91746C7.01667 6.01346 6.89332 6.05448 6.79732 6.01346L6.37258 5.82173C6.27658 5.7807 6.23555 5.67103 6.27658 5.56135ZM18.6473 10.0277L18.9213 8.08224C18.935 7.97257 19.031 7.90419 19.1407 7.91787L19.6065 7.98624C19.7161 7.99992 19.7845 8.09592 19.7708 8.20532L19.4968 10.1508C19.4831 10.2602 19.3871 10.3288 19.2777 10.3151L18.8119 10.2468C18.702 10.2331 18.6336 10.1374 18.6473 10.0277Z" fill="#EC6A69"/>
<path d="M5.25734 16.7322C5.35307 16.7814 5.45946 16.7918 5.53659 16.7598C5.61344 16.7278 5.64927 16.6581 5.6304 16.5768C5.61153 16.4956 5.54069 16.4155 5.44497 16.3662C5.34924 16.317 5.24285 16.3066 5.16572 16.3386C5.08887 16.3706 5.05304 16.4404 5.07191 16.5216C5.09078 16.6026 5.16135 16.683 5.25734 16.7322Z" fill="#E3A358"/>
<path d="M15.331 17.2134C15.3553 17.2774 15.4563 17.3067 15.5949 17.29C15.7339 17.2736 15.89 17.2137 16.0044 17.1333C16.1187 17.0529 16.1742 16.9637 16.1499 16.8997C16.1253 16.8357 16.0246 16.8064 15.8857 16.8228C15.7467 16.8393 15.5906 16.8989 15.4762 16.9796C15.3619 17.0602 15.3064 17.1494 15.331 17.2134Z" fill="#E3A358"/>
<path d="M9.18101 16.4947C9.31092 16.5907 9.46518 16.6331 9.58552 16.606C9.70586 16.5789 9.77423 16.4865 9.76439 16.3634C9.75482 16.2406 9.66894 16.1055 9.53902 16.0095C9.40911 15.9135 9.25486 15.8711 9.13452 15.8982C9.01418 15.9253 8.9458 16.0177 8.95565 16.1408C8.96495 16.2641 9.0511 16.399 9.18101 16.4947Z" fill="#E3A358"/>
<path d="M13.0197 18.3329C13.0353 18.4453 13.1877 18.517 13.36 18.4932C13.5325 18.4694 13.6594 18.3589 13.6439 18.2465C13.6283 18.134 13.4759 18.0621 13.3036 18.0862C13.131 18.11 13.0041 18.2205 13.0197 18.3329Z" fill="#E3A358"/>
</g>
<defs>
<clipPath id="clip0_117_6315">
<rect width="21.3333" height="21.3333" fill="white" transform="translate(0.55542 0.333496)"/>
</clipPath>
</defs>
</svg>
