<svg width="27" height="25" viewBox="0 0 27 25" fill="none" xmlns="http://www.w3.org/2000/svg">
<path d="M2.92533 11.6104C3.44453 18.0855 10.0811 22.3454 13.9587 23.9532C14.4409 24.1532 14.9799 24.1638 15.4677 23.9781C19.509 22.4393 25.9108 18.1631 26.5272 11.6104C27.7057 2.88747 17.3349 0.374606 14.7086 5.62591C11.9361 0.306362 2.23219 2.96613 2.92533 11.6104Z" fill="#6C5FBC"/>
<path d="M0.925325 9.61039C1.44453 16.0855 8.08108 20.3454 11.9587 21.9532C12.4409 22.1532 12.9799 22.1638 13.4677 21.9781C17.509 20.4393 23.9108 16.1631 24.5272 9.61039C25.7057 0.887472 15.3349 -1.62539 12.7086 3.62591C9.93606 -1.69364 0.232191 0.966134 0.925325 9.61039Z" fill="#DBD9EE"/>
<path fill-rule="evenodd" clip-rule="evenodd" d="M5.1851 0.555677C2.13833 1.78139 -0.339525 4.97045 0.0381908 9.68105C0.321655 13.2162 2.27065 16.0916 4.57315 18.2551C6.87682 20.4196 9.60323 21.9395 11.6177 22.7748C12.3067 23.0605 13.0809 23.077 13.7842 22.8092C15.8988 22.0041 18.6153 20.4917 20.8956 18.3181C23.1739 16.1465 25.0722 13.259 25.4114 9.7112C26.0502 4.9278 23.4963 1.74626 20.3628 0.546318C17.7465 -0.45558 14.5547 -0.0965398 12.7032 2.03905C10.842 -0.112726 7.76027 -0.480308 5.1851 0.555677ZM5.84936 2.20683C8.23281 1.24797 10.8005 1.88997 11.9194 4.03673C12.0739 4.33323 12.3816 4.51808 12.7159 4.51528C13.0503 4.51249 13.3548 4.32252 13.5044 4.02348C14.545 1.94282 17.2219 1.24932 19.7263 2.20838C22.1363 3.13128 24.1761 5.5612 23.6452 9.49078C23.6436 9.50269 23.6422 9.51462 23.6411 9.52658C23.3592 12.5234 21.7509 15.0442 19.6677 17.0299C17.5827 19.0172 15.0777 20.4123 13.1509 21.146L13.4676 21.9776L13.1509 21.146C12.8786 21.2496 12.5749 21.245 12.2994 21.1308C10.4363 20.3582 7.90565 18.9442 5.79185 16.958C3.67687 14.9708 2.04799 12.4787 1.81226 9.5388C1.49684 5.60514 3.52435 3.14218 5.84936 2.20683Z" fill="#6C5FBC"/>
</svg>
