<svg width="23" height="23" viewBox="0 0 23 23" fill="none" xmlns="http://www.w3.org/2000/svg">
<path fill-rule="evenodd" clip-rule="evenodd" d="M9.78963 0.548003C10.8125 -0.182644 12.1866 -0.182669 13.2095 0.547937L20.872 6.02095C22.2074 6.97478 23 8.51483 23 10.1559V18.4986C23 20.7142 21.2039 22.5103 18.9884 22.5103H15.9314C14.3067 22.5103 12.9896 21.1931 12.9896 19.5684V17.9637C12.9896 17.5206 12.6304 17.1614 12.1873 17.1614H10.8118C10.3687 17.1614 10.0095 17.5206 10.0095 17.9637V19.5684C10.0095 21.1931 8.6924 22.5103 7.06766 22.5103H4.01163C1.79607 22.5103 0 20.7142 0 18.4986V10.1558C0 8.5148 0.792489 6.97481 2.12781 6.02096L9.78963 0.548003ZM12.2768 1.85371C11.8119 1.52162 11.1873 1.52163 10.7223 1.85374L3.06052 7.3267C2.14688 7.97933 1.60465 9.03301 1.60465 10.1558V18.4986C1.60465 19.828 2.68229 20.9056 4.01163 20.9056H7.06766C7.80618 20.9056 8.40487 20.3069 8.40487 19.5684V17.9637C8.40487 16.6344 9.48251 15.5568 10.8118 15.5568H12.1873C13.5166 15.5568 14.5942 16.6344 14.5942 17.9637V19.5684C14.5942 20.3069 15.1929 20.9056 15.9314 20.9056H18.9884C20.3177 20.9056 21.3953 19.828 21.3953 18.4986V10.1559C21.3953 9.03307 20.8531 7.97935 19.9394 7.32673L12.2768 1.85371Z" fill="#CED0DE"/>
</svg>
