<svg width="25" height="24" viewBox="0 0 25 24" fill="none" xmlns="http://www.w3.org/2000/svg">
<path d="M2.80225 20.4985V12.1557C2.80225 10.7738 3.46961 9.47699 4.59409 8.67375L12.2559 3.20079C12.9998 2.66941 13.9992 2.6694 14.7431 3.20075L22.4056 8.67376C23.5302 9.47699 24.1976 10.7739 24.1976 12.1558V20.4985C24.1976 22.271 22.7607 23.7078 20.9883 23.7078H17.9314C16.7497 23.7078 15.7918 22.7499 15.7918 21.5683V19.9637C15.7918 19.0774 15.0734 18.359 14.1872 18.359H12.8118C11.9255 18.359 11.2071 19.0774 11.2071 19.9637V21.5683C11.2071 22.7499 10.2492 23.7078 9.06758 23.7078H6.01155C4.2391 23.7078 2.80225 22.271 2.80225 20.4985Z" fill="#6C5FBC"/>
<path d="M0.802246 18.4985V10.1557C0.802246 8.77383 1.46961 7.47699 2.59409 6.67375L10.2559 1.20079C10.9998 0.669414 11.9992 0.669395 12.7431 1.20075L20.4056 6.67376C21.5302 7.47699 22.1976 8.77387 22.1976 10.1558V18.4985C22.1976 20.271 20.7607 21.7078 18.9883 21.7078H15.9314C14.7497 21.7078 13.7918 20.7499 13.7918 19.5683V17.9637C13.7918 17.0774 13.0734 16.359 12.1872 16.359H10.8118C9.92554 16.359 9.20711 17.0774 9.20711 17.9637V19.5683C9.20711 20.7499 8.24921 21.7078 7.06758 21.7078H4.01155C2.2391 21.7078 0.802246 20.271 0.802246 18.4985Z" fill="#DBD9EE"/>
<path fill-rule="evenodd" clip-rule="evenodd" d="M9.78963 0.548003C10.8125 -0.182644 12.1866 -0.182669 13.2095 0.547937L20.872 6.02095C22.2074 6.97478 23 8.51483 23 10.1559V18.4986C23 20.7142 21.2039 22.5103 18.9884 22.5103H15.9314C14.3067 22.5103 12.9896 21.1931 12.9896 19.5684V17.9637C12.9896 17.5206 12.6304 17.1614 12.1873 17.1614H10.8118C10.3687 17.1614 10.0095 17.5206 10.0095 17.9637V19.5684C10.0095 21.1931 8.6924 22.5103 7.06766 22.5103H4.01163C1.79607 22.5103 0 20.7142 0 18.4986V10.1558C0 8.5148 0.792489 6.97481 2.12781 6.02096L9.78963 0.548003ZM12.2768 1.85371C11.8119 1.52162 11.1873 1.52163 10.7223 1.85374L3.06052 7.3267C2.14688 7.97933 1.60465 9.03301 1.60465 10.1558V18.4986C1.60465 19.828 2.68229 20.9056 4.01163 20.9056H7.06766C7.80618 20.9056 8.40487 20.3069 8.40487 19.5684V17.9637C8.40487 16.6344 9.48251 15.5568 10.8118 15.5568H12.1873C13.5166 15.5568 14.5942 16.6344 14.5942 17.9637V19.5684C14.5942 20.3069 15.1929 20.9056 15.9314 20.9056H18.9884C20.3177 20.9056 21.3953 19.828 21.3953 18.4986V10.1559C21.3953 9.03307 20.8531 7.97935 19.9394 7.32673L12.2768 1.85371Z" fill="#6C5FBC"/>
</svg>
