<svg width="18" height="32" viewBox="0 0 18 32" fill="none" xmlns="http://www.w3.org/2000/svg">
<g clip-path="url(#clip0_117_9467)">
<path d="M4.19012 12.3911C4.19012 12.3911 2.18314 8.75592 6.75023 6.55687C11.3177 4.35782 10.4179 2.10567 10.3835 0.722656C10.3835 0.722656 14.224 2.07038 14.224 6.09575C14.224 10.7593 4.19012 12.3911 4.19012 12.3911Z" fill="white"/>
<path d="M11.3868 2.24766C11.3868 2.24766 12.3901 5.93626 10.4353 7.30146C8.48044 8.667 5.66031 9.07467 4.62256 10.6886C4.62256 10.6886 6.09312 11.4512 8.42863 10.8482C10.7641 10.2453 14.224 6.66322 14.224 6.66322C14.224 6.66322 15.7119 0.95303 11.3868 2.24766Z" fill="#5A85FF"/>
<path d="M11.421 2.35403C11.421 2.35403 13.2549 4.71273 12.8224 6.29067C12.3899 7.86895 10.4351 8.89739 10.141 8.96831C9.84685 9.03922 5.62568 9.96146 4.6394 10.6884C4.6394 10.6884 9.27567 10.6528 10.5734 9.92583C11.8883 9.19887 14.7081 7.28348 14.068 5.75864C13.428 4.23379 12.8398 1.59144 11.421 2.35403Z" fill="#507BE1"/>
<path d="M4.35157 13.1443C4.28306 13.1299 4.2376 13.1299 4.18981 13.1299C3.93012 13.1299 3.69149 12.9891 3.56716 12.7623C3.41543 12.4639 2.69819 10.9175 3.23562 9.20181C3.67144 7.82668 4.75765 6.71191 6.46316 5.88937C10.0005 4.20454 9.85748 2.69511 9.73114 1.36349C9.71376 1.13327 9.69638 0.937311 9.679 0.741352C9.67967 0.516274 9.7893 0.285715 9.97311 0.140802C10.0958 0.0513876 10.2485 0 10.3986 0C10.4791 0 10.5577 0.0143885 10.6319 0.042823C11.3725 0.331622 14.962 1.94417 14.962 6.13089C14.962 11.2882 5.12295 13.0168 4.35157 13.1443ZM11.208 2.31073C11.1492 3.7095 10.6265 5.53171 7.07277 7.22407C5.74225 7.86916 4.91339 8.68143 4.60825 9.63895C4.40204 10.3111 4.48292 10.9617 4.58719 11.3896L4.62864 11.5595L4.79608 11.5249C5.68744 11.3399 13.5031 9.61634 13.5031 6.09629C13.5031 4.09731 12.4096 2.85852 11.4921 2.17096L11.2224 1.96883L11.208 2.31073Z" fill="#4C2F1B"/>
<path d="M2.40798 17.4626C2.40798 17.4626 0.141652 13.5256 4.98581 11.5753C9.58765 9.71331 10.6602 11.5396 13.9646 7.30151C14.4318 8.17031 16.1096 10.5821 13.7744 13.6143C12.7534 14.9446 4.81268 17.5335 2.40798 17.4626Z" fill="white"/>
<path d="M13.7913 8.47192C13.7913 8.47192 14.5182 12.0896 8.15167 12.6038C3.89574 12.9409 2.33862 16.3103 2.33862 16.3103L12.1476 14.5545L14.9848 11.6994L13.7913 8.47192Z" fill="#FF5C68"/>
<path d="M6.78484 30.3722C6.35236 30.3722 5.97169 30.0529 5.9025 29.6096L4.93361 23.7044C4.8818 23.4386 4.96837 23.1549 5.14149 22.9597C5.31428 22.7469 5.55659 22.6404 5.83332 22.6404H11.7674C12.0267 22.6404 12.2864 22.7644 12.4592 22.9597C12.6323 23.1728 12.7015 23.4386 12.6671 23.7044L11.6982 29.6096C11.629 30.0529 11.2483 30.3722 10.8158 30.3722H6.78484Z" fill="#FFCD8A"/>
<path d="M6.78479 31.1112C5.99336 31.1112 5.3032 30.5141 5.17954 29.7227L4.21031 23.8159C4.13144 23.3143 4.26145 22.8193 4.56692 22.4592C4.88677 22.0824 5.34197 21.8662 5.81589 21.8662H11.7499C12.2242 21.8662 12.6794 22.0824 12.9989 22.4592C13.3037 22.8344 13.4347 23.3297 13.3555 23.8162L12.3866 29.721C12.2452 30.5254 11.5698 31.1108 10.781 31.1108H6.78479V31.1112ZM6.63339 29.6155H10.9321L11.9612 23.3441H5.60433L6.63339 29.6155Z" fill="#4C2F1B"/>
<path d="M13.4998 25.1797L8.84619 25.4404H8.73723L4.08359 25.1793C3.62905 25.1608 3.22899 24.8066 3.15647 24.3407L2.37506 20.1485C2.26611 19.515 2.73869 18.9189 3.35666 18.9189H14.2271C14.8634 18.9189 15.336 19.515 15.2087 20.1485L14.4273 24.341C14.3361 24.8069 13.9544 25.1423 13.4998 25.1797Z" fill="#FFCD8A"/>
<path d="M1.54297 21.3834L1.96375 20.7763L9.39542 26.1902L8.97464 26.7972L1.54297 21.3834ZM3.98242 20.8486L4.4032 20.2415L11.8345 25.6554L11.4138 26.2624L3.98242 20.8486ZM6.77147 20.3947L7.19259 19.7876L14.6239 25.2015L14.2031 25.8085L6.77147 20.3947ZM8.7076 19.2052L9.12838 18.5981L15.5728 23.2929L15.1516 23.9L8.7076 19.2052Z" fill="#FFBB71"/>
<path d="M7.72898 26.2004L15.1613 20.7875L15.5821 21.3949L8.14976 26.8078L7.72898 26.2004ZM5.29821 25.6478L14.4932 18.9509L14.914 19.5583L5.71899 26.2548L5.29821 25.6478ZM2.48243 25.2058L9.91443 19.793L10.3352 20.4001L2.90321 25.8129L2.48243 25.2058ZM1.54395 23.3018L7.989 18.6077L8.40978 19.2151L1.96473 23.9092L1.54395 23.3018Z" fill="#FFBB71"/>
<path d="M8.61869 26.9263L4.19966 26.6786C3.01853 26.6289 2.0346 25.7488 1.80499 24.5388L1.06135 20.5494C0.916971 19.7936 1.11817 19.0016 1.61281 18.3764C2.11848 17.7577 2.82536 17.4158 3.60174 17.4158H13.9648C14.7335 17.4158 15.4564 17.7731 15.898 18.3716C16.4009 18.9704 16.6005 19.7611 16.4531 20.5494L15.7091 24.5395C15.4829 25.7323 14.4982 26.6121 13.3144 26.6786L8.89041 26.9263H8.61869ZM3.61879 18.8933C3.29059 18.8933 2.9791 19.0441 2.76352 19.3075C2.54194 19.5785 2.44903 19.9324 2.50852 20.2787L3.25315 24.2709C3.3337 24.7872 3.7859 25.1965 4.30393 25.2178L8.72998 25.4658L8.84361 25.4662L13.2824 25.2174C13.8007 25.175 14.2299 24.7865 14.3301 24.2723L15.0741 20.2811C15.1423 19.9423 15.0581 19.5912 14.8428 19.3205C14.6269 19.0492 14.3067 18.8933 13.9645 18.8933H3.61879Z" fill="#4C2F1B"/>
<path d="M13.8086 8.96851C13.8086 8.96851 14.2066 11.5752 12.5459 12.7811C10.5045 14.59 4.65704 14.3772 3.20386 15.5297C3.20386 15.5297 12.3728 15.725 13.4453 13.0292C14.5178 10.3337 14.8637 9.09252 13.8086 8.96851Z" fill="#F93D53"/>
<path d="M2.39067 18.2192C2.1487 18.2192 1.92644 18.0825 1.78106 17.8441C1.76401 17.8181 0.712895 15.9685 1.36596 14.0106C1.81381 12.6502 2.93712 11.6019 4.70446 10.8944C6.46779 10.1925 7.76924 10.0174 8.81467 9.87662C10.6024 9.64093 11.5857 9.51109 13.5154 7.04311C13.6495 6.86839 13.846 6.76904 14.0555 6.76904C14.0816 6.76904 14.1077 6.77041 14.1334 6.77384C14.3824 6.78926 14.597 6.93417 14.7039 7.15274C14.7297 7.19487 14.7447 7.22228 14.7597 7.24935C14.7795 7.28463 14.7995 7.31958 14.8189 7.35007C15.365 8.30074 16.8295 10.8485 14.343 14.0866C13.0776 15.7293 4.99489 18.2196 2.47723 18.2196H2.39067V18.2192ZM13.7661 9.00132C11.9396 10.9609 10.5823 11.1366 9.01153 11.3401C7.89958 11.4755 6.7726 11.6488 5.23119 12.2737C3.87861 12.8098 3.03437 13.5573 2.72322 14.4953C2.51232 15.1003 2.53505 15.8088 2.79207 16.5985L2.83685 16.7365L2.97822 16.7232C5.75791 16.4594 12.4369 14.1411 13.1876 13.1795C14.624 11.2946 14.3754 9.92835 14.0632 9.06436L13.964 8.7896L13.7661 9.00132Z" fill="#4C2F1B"/>
<path d="M14.6739 12.2312C14.6739 12.2312 13.6359 14.6074 9.57044 15.4409C6.30079 16.0969 1.40483 15.6714 1.38745 18.8989C1.38745 21.9668 13.8434 21.4347 15.3832 18.6684C17.6151 14.643 14.6739 12.2312 14.6739 12.2312Z" fill="white"/>
<path d="M2.23511 18.9169C4.18995 17.0728 9.34526 18.2077 11.1617 17.5335C13.6182 16.6113 14.6737 16.3098 14.8812 13.5435C14.8812 13.5435 18.0299 17.2852 13.9989 19.8032C11.6634 21.2221 3.63615 22.2328 2.23511 18.9169Z" fill="#FFF383"/>
<path d="M14.9159 13.5259C14.9159 13.5259 18.4626 20.9915 3.20386 19.6263C3.22124 19.6259 20.1407 22.7291 14.9159 13.5259Z" fill="#F6E259"/>
<path d="M6.81954 21.642C5.06791 21.642 3.61172 21.4433 2.60773 21.0678C1.33637 20.6204 0.66626 19.8709 0.66626 18.8993C0.66626 15.7777 4.14045 15.3731 6.93184 15.0476L7.01239 15.038C7.98463 14.9387 8.77138 14.8277 9.41374 14.6989C12.8401 14 14.1911 12.1048 14.3074 11.8027L14.2923 11.8612C14.4016 11.6656 14.5801 11.5334 14.795 11.4892C14.8338 11.481 14.8735 11.4775 14.913 11.4775C15.0777 11.4775 15.2512 11.545 15.3892 11.6632C16.687 12.8061 18.4704 15.8383 15.9176 19.122C14.6807 20.7595 10.3074 21.642 6.81954 21.642ZM14.8401 13.5396C13.9748 14.4447 12.3826 15.6348 9.70919 16.1658C8.90139 16.3275 7.97828 16.4347 7.18184 16.518C4.12675 16.8657 2.12512 17.2193 2.12512 18.8989C2.12512 19.2487 2.74175 19.5238 3.10939 19.6571C4.00209 19.9784 5.25775 20.1483 6.741 20.1483C9.85357 20.1483 13.9414 19.347 14.8307 18.197C16.3982 16.1555 15.6817 14.4183 15.1152 13.5646L14.9925 13.3796L14.8401 13.5396Z" fill="#4C2F1B"/>
</g>
<defs>
<clipPath id="clip0_117_9467">
<rect width="16.5485" height="31.1111" fill="white" transform="translate(0.66626)"/>
</clipPath>
</defs>
</svg>
