<svg width="114" height="105" viewBox="0 0 114 105" fill="none" xmlns="http://www.w3.org/2000/svg">
<rect x="9.11768" y="12.3528" width="104.882" height="92.6471" rx="17.2941" fill="#6C5FBC"/>
<rect x="2.5" y="2.5" width="99.8821" height="87.6471" rx="14.7941" fill="#DBD9EE" stroke="#6C5FBC" stroke-width="5"/>
<path d="M80.9531 29.9029L24.1252 29.6516" stroke="#6C5FBC" stroke-width="5.17202" stroke-linecap="round" stroke-linejoin="round"/>
<path d="M80.9186 41.2811L68.2799 41.2252C63.0522 41.2021 58.8242 36.0852 58.8434 29.805C58.8626 23.5247 63.1219 18.4454 68.3496 18.4685L80.9883 18.5244" stroke="#6C5FBC" stroke-width="5.17202" stroke-linecap="round" stroke-linejoin="round"/>
<path d="M43.0797 66.3091L26.5675 66.1252C25.2145 66.1193 24.0809 64.7843 24.0551 63.1588L23.9452 58.8731C23.9197 57.1737 25.0618 55.7381 26.4763 55.7443L42.804 55.9273L43.0797 66.3091Z" stroke="#6C5FBC" stroke-width="5.17202" stroke-linecap="round" stroke-linejoin="round"/>
<path d="M69.0151 72.483L45.6756 72.1951C44.3226 72.1891 43.1888 70.8542 43.1631 69.2286L42.8657 55.8907L80.7809 56.3539L80.8064 58.0534C80.997 66.1079 75.6879 72.5864 69.0151 72.483Z" stroke="#6C5FBC" stroke-width="5.17202" stroke-linecap="round" stroke-linejoin="round"/>
</svg>
