<svg width="23" height="23" viewBox="0 0 23 23" fill="none" xmlns="http://www.w3.org/2000/svg">
<path fill-rule="evenodd" clip-rule="evenodd" d="M10.8629 1.67128C8.68723 1.67128 6.92348 3.43503 6.92348 5.61073C6.92348 7.78642 8.68723 9.55017 10.8629 9.55017C13.0386 9.55017 14.8024 7.78642 14.8024 5.61073C14.8024 3.43503 13.0386 1.67128 10.8629 1.67128ZM5.2522 5.61073C5.2522 2.51201 7.76421 0 10.8629 0C13.9616 0 16.4737 2.51201 16.4737 5.61073C16.4737 8.70944 13.9616 11.2215 10.8629 11.2215C7.76421 11.2215 5.2522 8.70944 5.2522 5.61073Z" fill="#CED0DE"/>
<path fill-rule="evenodd" clip-rule="evenodd" d="M2.29476 16.6191C4.02981 14.7655 6.85162 13.3701 11.1817 13.3701C15.5117 13.3701 18.3335 14.7655 20.0686 16.6191C21.7818 18.4495 22.3633 20.651 22.3633 22.1642C22.3633 22.6257 21.9892 22.9999 21.5277 22.9999H0.83564C0.374129 22.9999 0 22.6257 0 22.1642C0 20.651 0.581556 18.4495 2.29476 16.6191ZM1.74234 21.3286H20.621C20.4471 20.256 19.9328 18.9198 18.8484 17.7612C17.4796 16.2989 15.1284 15.0414 11.1817 15.0414C7.23488 15.0414 4.88368 16.2989 3.51493 17.7612C2.43052 18.9198 1.91624 20.256 1.74234 21.3286Z" fill="#CED0DE"/>
</svg>
