<svg width="25" height="25" viewBox="0 0 25 25" fill="none" xmlns="http://www.w3.org/2000/svg">
<path d="M24.5277 24.1645H3.83569C3.83569 21.5117 5.9049 16.2061 14.1817 16.2061C22.4585 16.2061 24.5277 21.5117 24.5277 24.1645Z" fill="#6C5FBC"/>
<path d="M15.6381 5.61078C15.6381 8.24799 13.5002 10.3859 10.863 10.3859C8.22577 10.3859 6.08789 8.24799 6.08789 5.61078C6.08789 2.97357 8.22577 0.835693 10.863 0.835693C13.5002 0.835693 15.6381 2.97357 15.6381 5.61078Z" fill="#DBD9EE"/>
<path d="M21.5277 22.1643H0.835693C0.835693 19.5115 2.9049 14.2058 11.1817 14.2058C19.4585 14.2058 21.5277 19.5115 21.5277 22.1643Z" fill="#DBD9EE"/>
<path fill-rule="evenodd" clip-rule="evenodd" d="M10.8629 1.67128C8.68723 1.67128 6.92348 3.43503 6.92348 5.61073C6.92348 7.78642 8.68723 9.55017 10.8629 9.55017C13.0386 9.55017 14.8024 7.78642 14.8024 5.61073C14.8024 3.43503 13.0386 1.67128 10.8629 1.67128ZM5.2522 5.61073C5.2522 2.51201 7.76421 0 10.8629 0C13.9616 0 16.4737 2.51201 16.4737 5.61073C16.4737 8.70944 13.9616 11.2215 10.8629 11.2215C7.76421 11.2215 5.2522 8.70944 5.2522 5.61073Z" fill="#6C5FBC"/>
<path fill-rule="evenodd" clip-rule="evenodd" d="M2.29476 16.6193C4.02981 14.7656 6.85162 13.3702 11.1817 13.3702C15.5117 13.3702 18.3335 14.7656 20.0686 16.6193C21.7818 18.4496 22.3633 20.6511 22.3633 22.1644C22.3633 22.6259 21.9892 23 21.5277 23H0.83564C0.374129 23 0 22.6259 0 22.1644C0 20.6511 0.581556 18.4496 2.29476 16.6193ZM1.74234 21.3287H20.621C20.4471 20.2561 19.9328 18.9199 18.8484 17.7614C17.4796 16.299 15.1284 15.0415 11.1817 15.0415C7.23488 15.0415 4.88368 16.299 3.51493 17.7614C2.43052 18.9199 1.91624 20.2561 1.74234 21.3287Z" fill="#6C5FBC"/>
</svg>
