<svg width="18" height="17" viewBox="0 0 18 17" fill="none" xmlns="http://www.w3.org/2000/svg">
<path d="M11.1364 13.7298C12.2252 14.3258 13.1828 13.6034 12.9746 12.3393L12.6007 10.0696L14.1846 8.46212C15.0655 7.56813 14.7016 6.39672 13.4825 6.21229L11.2935 5.88113L10.3195 3.82625C9.77385 2.67521 8.58915 2.66283 8.04249 3.81604L7.06358 5.88113L4.87466 6.21229C3.65728 6.39646 3.29038 7.56686 4.17253 8.46212L5.75645 10.0696L5.38253 12.3393C5.17458 13.6017 6.13034 14.3266 7.22074 13.7298L9.17856 12.6582L11.1364 13.7298Z" fill="#6C5FBC"/>
<mask id="mask0_117_3428" style="mask-type:luminance" maskUnits="userSpaceOnUse" x="3" y="2" width="12" height="12">
<path d="M11.1364 13.7298C12.2252 14.3258 13.1828 13.6034 12.9746 12.3393L12.6007 10.0696L14.1846 8.46212C15.0655 7.56813 14.7016 6.39672 13.4825 6.21229L11.2935 5.88113L10.3195 3.82625C9.77385 2.67521 8.58915 2.66283 8.04249 3.81604L7.06358 5.88113L4.87466 6.21229C3.65728 6.39646 3.29038 7.56686 4.17253 8.46212L5.75645 10.0696L5.38253 12.3393C5.17458 13.6017 6.13034 14.3266 7.22074 13.7298L9.17856 12.6582L11.1364 13.7298Z" fill="white"/>
</mask>
<g mask="url(#mask0_117_3428)">
</g>
</svg>
