<svg width="26" height="26" viewBox="0 0 26 26" fill="none" xmlns="http://www.w3.org/2000/svg">
<path fill-rule="evenodd" clip-rule="evenodd" d="M0 5.12489C0 4.63361 0.398259 4.23535 0.889536 4.23535H24.6102C25.1015 4.23535 25.4998 4.63361 25.4998 5.12489C25.4998 5.61617 25.1015 6.01442 24.6102 6.01442H0.889536C0.398259 6.01442 0 5.61617 0 5.12489Z" fill="#F3F5F6"/>
<path d="M4.27832 18.561V5.2436C4.27832 5.1781 4.33142 5.125 4.39693 5.125H21.1031C21.1686 5.125 21.2217 5.1781 21.2217 5.24361V18.561C21.2217 21.9017 18.5135 24.6098 15.1728 24.6098H10.3272C6.98648 24.6098 4.27832 21.9017 4.27832 18.561Z" fill="#F3F5F6"/>
<path fill-rule="evenodd" clip-rule="evenodd" d="M5.16774 6.01442V18.5609C5.16774 21.4103 7.47765 23.7202 10.3271 23.7202H15.1727C18.0221 23.7202 20.332 21.4103 20.332 18.5609V6.01442H5.16774ZM3.38867 5.24349C3.38867 4.68671 3.84003 4.23535 4.39681 4.23535H21.1029C21.6597 4.23535 22.1111 4.68672 22.1111 5.24349V18.5609C22.1111 22.3929 19.0047 25.4993 15.1727 25.4993H10.3271C6.49509 25.4993 3.38867 22.3929 3.38867 18.5609V5.24349Z" fill="#F3F5F6"/>
<path fill-rule="evenodd" clip-rule="evenodd" d="M9.36122 10.166C9.85249 10.166 10.2508 10.5643 10.2508 11.0556V17.8329C10.2508 18.3242 9.85249 18.7224 9.36122 18.7224C8.86994 18.7224 8.47168 18.3242 8.47168 17.8329V11.0556C8.47168 10.5643 8.86994 10.166 9.36122 10.166Z" fill="#6C5FBC"/>
<path fill-rule="evenodd" clip-rule="evenodd" d="M16.1386 10.166C16.6298 10.166 17.0281 10.5643 17.0281 11.0556V17.8329C17.0281 18.3242 16.6298 18.7224 16.1386 18.7224C15.6473 18.7224 15.249 18.3242 15.249 17.8329V11.0556C15.249 10.5643 15.6473 10.166 16.1386 10.166Z" fill="#6C5FBC"/>
<path fill-rule="evenodd" clip-rule="evenodd" d="M10.039 1.77907C9.22018 1.77907 8.55642 2.44284 8.55642 3.26163V5.12537C8.55642 5.61665 8.15816 6.01491 7.66688 6.01491C7.1756 6.01491 6.77734 5.61665 6.77734 5.12537V3.26163C6.77734 1.46028 8.23763 0 10.039 0H15.4608C17.2621 0 18.7224 1.46028 18.7224 3.26163V5.12537C18.7224 5.61665 18.3242 6.01491 17.8329 6.01491C17.3416 6.01491 16.9434 5.61665 16.9434 5.12537V3.26163C16.9434 2.44284 16.2796 1.77907 15.4608 1.77907H10.039Z" fill="#F3F5F6"/>
</svg>
