<svg width="23" height="17" viewBox="0 0 23 17" fill="none" xmlns="http://www.w3.org/2000/svg">
<g clip-path="url(#clip0_117_9441)">
<path d="M4.11298 3.86938C4.11298 3.86938 13.0532 9.3433 11.9885 13.8254C11.9885 13.8254 3.84365 11.1176 4.11298 3.86938Z" fill="#359A60"/>
<path d="M12.3511 14.4907L11.8129 14.3157C11.731 14.2922 3.31707 11.3977 3.58615 3.85771L3.6213 2.98242L4.37014 3.43747C4.74468 3.67104 13.6265 9.15681 12.468 13.9421L12.3511 14.4907ZM4.63947 4.82632C5.01401 9.86864 9.84691 12.378 11.5555 13.1016C11.6023 10.1489 7.19046 6.54232 4.63947 4.82632Z" fill="#4C2F1B"/>
<path d="M1.19922 5.4917C1.19922 5.4917 3.39919 15.5993 12.7959 15.5993C12.8078 15.5995 10.011 5.60848 1.19922 5.4917Z" fill="#33AC64"/>
<path d="M12.7957 16.113C3.09478 16.113 0.719296 5.71356 0.695781 5.60838L0.55542 4.97803L1.19905 4.98963C10.2915 5.10642 13.2638 15.3659 13.2874 15.4711L13.4745 16.1246L12.7957 16.113C12.8076 16.113 12.7957 16.113 12.7957 16.113ZM1.87782 6.04022C2.50982 8.16436 5.02566 14.654 12.082 15.0624C11.2978 12.9499 8.40743 6.54218 1.87782 6.04022Z" fill="#4C2F1B"/>
<path d="M19.1386 4.52295C19.1386 4.52295 10.4908 10.4405 11.7897 14.8641C11.7897 14.8639 19.782 11.7477 19.1386 4.52295Z" fill="#359A60"/>
<path d="M11.4616 15.5528L11.2978 15.0158C9.90529 10.2888 18.4829 4.35957 18.8455 4.10279L19.5711 3.60083L19.653 4.47636C20.3199 11.9929 12.0701 15.3076 11.9765 15.3427L11.4616 15.5528ZM18.6584 5.50324C16.2126 7.34739 11.9882 11.1757 12.187 14.1287C13.849 13.3 18.5532 10.5456 18.6584 5.50324Z" fill="#4C2F1B"/>
<path d="M22.1929 5.71362C22.1929 5.71362 11.8364 10.5105 12.4333 15.4827C12.4449 15.4827 21.5725 13.5685 22.1929 5.71362Z" fill="#33AC64"/>
<path d="M12.0002 16.1011L11.9299 15.5409C11.2979 10.2536 21.5492 5.44488 21.9819 5.24637L22.7777 4.87305L22.7074 5.74833C22.0638 13.8953 12.6438 15.9611 12.5384 15.9843L12.0002 16.1011ZM21.5608 6.60041C19.2789 7.77914 13.1939 11.2692 12.9364 14.8172C14.8319 14.257 20.5545 12.1328 21.5608 6.60041Z" fill="#4C2F1B"/>
<path d="M11.509 1.395C12.059 1.395 12.5972 1.66338 12.9014 2.21201L19.0216 13.3586C19.5949 14.4092 18.8344 15.7047 17.6291 15.7047H5.37717C4.17185 15.7047 3.41114 14.4208 3.9847 13.3586L10.1167 2.21201C10.4205 1.66338 10.9587 1.395 11.509 1.395ZM11.509 0.111084C10.4559 0.111084 9.49614 0.682921 8.99287 1.59327L2.86108 12.7398C2.3697 13.6386 2.38133 14.7008 2.90787 15.5761C3.43441 16.4516 4.359 16.9768 5.37693 16.9768H17.6289C18.6587 16.9768 19.583 16.4516 20.0979 15.5761C20.6245 14.7008 20.6363 13.6386 20.1447 12.7398L14.0248 1.59327C13.5215 0.671315 12.5504 0.111084 11.509 0.111084Z" fill="#4C2F1B"/>
<path d="M9.27328 9.4834C9.22649 9.4834 9.19134 9.4834 9.14456 9.47179C8.68832 9.41352 8.41899 9.0165 8.39572 8.96984C8.31378 8.85305 8.34893 8.6896 8.46602 8.61972C8.58287 8.538 8.74674 8.57306 8.81705 8.68984C8.86383 8.75996 9.02771 8.93502 9.2151 8.97008C9.34383 8.98168 9.48419 8.93502 9.62479 8.80663C9.73 8.7133 9.89388 8.7249 9.98745 8.83008C10.081 8.93502 10.0694 9.09847 9.96418 9.1918C9.75327 9.39007 9.5191 9.4834 9.27328 9.4834Z" fill="#F9E39E"/>
<path d="M12.8776 2.04852L19.3956 13.3351C20.0041 14.3854 19.2436 15.7044 18.0264 15.7044H4.97884C3.76188 15.7044 3.00117 14.3854 3.60964 13.3351L10.1392 2.06012C10.748 0.998177 12.2692 0.998177 12.8776 2.04852Z" fill="#FAF7BD"/>
<path d="M6.74615 7.6626L2.93118 13.3466C2.3227 14.397 3.08342 15.7159 4.30037 15.7159L12.5621 15.7043C9.71847 14.0819 7.43657 8.95812 6.74615 7.6626Z" fill="#3AB26C"/>
<path d="M9.30857 10.8841C9.26179 10.8841 9.22664 10.8841 9.17985 10.8725C8.72361 10.814 8.45428 10.4172 8.43101 10.3705C8.34907 10.2537 8.38422 10.0903 8.50131 10.0204C8.6184 9.93869 8.78228 9.97375 8.85234 10.0905C8.89913 10.1607 9.063 10.3357 9.25015 10.3708C9.37888 10.3942 9.51924 10.3357 9.65984 10.2073C9.7653 10.114 9.92893 10.1256 10.0227 10.2308C10.1163 10.3357 10.1047 10.4992 9.99923 10.5925C9.78857 10.7789 9.55439 10.8841 9.30857 10.8841ZM9.12143 9.4834C9.07464 9.4834 9.03949 9.4834 8.9927 9.47179C8.53646 9.41352 8.26713 9.0165 8.24386 8.96984C8.16192 8.85305 8.19708 8.6896 8.31416 8.61972C8.43101 8.538 8.59489 8.57306 8.66519 8.68984C8.71198 8.75996 8.87585 8.93502 9.063 8.97008C9.19173 8.98168 9.33209 8.93502 9.47269 8.80663C9.57815 8.7133 9.74178 8.7249 9.8356 8.83008C9.92917 8.93502 9.91754 9.09847 9.81208 9.1918C9.58954 9.39007 9.35536 9.4834 9.12143 9.4834Z" fill="#F9E39E"/>
<path d="M11.2159 14.6658C7.10855 14.3858 4.81477 9.91533 4.72119 9.71706L5.41161 9.36694C5.43512 9.41361 7.59994 13.6389 11.2743 13.8838L11.2159 14.6658Z" fill="#2D9556"/>
<path d="M4.38199 16.1132L3.71509 15.7164C3.78539 15.6112 5.38852 12.997 9.78845 11.8296L9.98724 12.5765C5.8799 13.6737 4.39362 16.0897 4.38199 16.1132Z" fill="#2D9556"/>
<path d="M6.6173 7.82615C6.65245 7.82615 6.69923 7.8496 6.72275 7.88442C7.5654 9.3666 9.68343 14.1521 12.5622 15.7044H4.53442C3.24716 15.7044 2.43966 14.3855 3.08329 13.3351L6.52372 7.88442C6.54699 7.84936 6.58214 7.82615 6.6173 7.82615ZM6.6173 6.54224C6.12591 6.54224 5.68107 6.78741 5.42386 7.2074L1.99482 12.6581V12.6697C1.45664 13.545 1.43313 14.6072 1.9364 15.4943C2.4513 16.4165 3.44595 16.9884 4.53442 16.9884L12.5619 16.9767H17.6642L13.1704 14.5724C11.0875 13.4635 9.30865 10.0436 8.34915 8.21132C8.15036 7.838 7.98649 7.51109 7.83425 7.25431C7.58843 6.81062 7.12032 6.54224 6.6173 6.54224Z" fill="#4C2F1B"/>
<path d="M16.5052 8.32788C14.7149 11.7359 10.7009 15.179 9.97534 15.7045H18.0264C19.2436 15.7045 20.0157 14.3855 19.3956 13.3351L16.5052 8.32788Z" fill="#3AB26C"/>
<path d="M11.3917 16.7431L11.2043 15.9962C16.2947 14.7007 18.2724 10.4522 18.2959 10.4053L18.9982 10.7206C18.9162 10.9072 16.8447 15.3543 11.3917 16.7431Z" fill="#2D9556"/>
<path d="M16.4819 16.4865L15.7331 16.3115C16.517 12.9269 15.0778 9.50697 15.0659 9.47191L15.7798 9.16846C15.8264 9.3203 17.3243 12.8565 16.4819 16.4865Z" fill="#2D9556"/>
<path d="M14.2119 9.35498C14.1651 9.35498 14.13 9.35498 14.0832 9.34338C13.6269 9.28511 13.3576 8.88833 13.3343 8.84142C13.2524 8.72487 13.2875 8.56142 13.4046 8.4913C13.5215 8.40958 13.6854 8.44464 13.7557 8.56142C13.8024 8.63154 13.9663 8.8066 14.1537 8.84142C14.2824 8.85302 14.4228 8.80636 14.5634 8.67797C14.6686 8.58464 14.8325 8.59624 14.9261 8.70142C15.0196 8.8066 15.008 8.96981 14.9025 9.06338C14.6916 9.26165 14.4577 9.35498 14.2119 9.35498ZM11.7193 12.623C11.6725 12.623 11.6374 12.623 11.5906 12.6114C11.1341 12.5532 10.865 12.1564 10.8418 12.1097C10.7598 11.9929 10.795 11.8295 10.9121 11.7596C11.0292 11.6779 11.193 11.7129 11.2631 11.8297C11.3099 11.8998 11.4738 12.0749 11.6609 12.11C11.7896 12.1216 11.93 12.0749 12.0706 11.9465C12.176 11.8532 12.3397 11.8648 12.4333 11.9697C12.5268 12.0749 12.5152 12.2381 12.41 12.3317C12.1874 12.5297 11.9535 12.623 11.7193 12.623ZM14.247 10.8256C14.2003 10.8256 14.1651 10.8256 14.1183 10.814C13.6621 10.7557 13.3928 10.3589 13.3695 10.3122C13.2875 10.1955 13.3227 10.032 13.4398 9.96212C13.5569 9.8804 13.7207 9.91546 13.7908 10.0322C13.8376 10.1024 14.0015 10.2774 14.1886 10.3125C14.3173 10.3241 14.4577 10.2774 14.5983 10.149C14.7038 10.0557 14.8674 10.0673 14.9612 10.1722C15.0548 10.2774 15.0432 10.4406 14.9377 10.5342C14.7268 10.7206 14.4926 10.8256 14.247 10.8256Z" fill="#F9E39E"/>
<path d="M16.5053 8.67807C16.5989 8.67807 16.6927 8.72474 16.7511 8.80646L19.4777 13.3234C20.1096 14.3737 19.3138 15.6927 18.0382 15.6927H9.98737C10.7129 15.2026 14.797 12.0627 16.2479 8.84128C16.283 8.73658 16.3885 8.67807 16.5053 8.67807ZM16.5053 7.40601C15.885 7.40601 15.3233 7.76797 15.0658 8.3282C13.8021 11.1061 10.1042 14.0707 9.24993 14.6542L5.83301 17H18.0265C19.1031 17 20.0978 16.4282 20.6127 15.5179C21.1159 14.6191 21.1041 13.5688 20.5659 12.6816L17.8394 8.16475C17.5587 7.68624 17.0554 7.40601 16.5053 7.40601Z" fill="#4C2F1B"/>
<path d="M10.83 4.72123C10.7833 4.72123 10.7246 4.72123 10.678 4.70962C10.2216 4.6279 9.97575 4.23112 9.94085 4.18445C9.87054 4.06791 9.90569 3.90446 10.0344 3.83434C10.1513 3.76422 10.3151 3.79928 10.3854 3.91607C10.4322 3.98619 10.5845 4.17285 10.7716 4.20791C10.9003 4.23136 11.0407 4.18445 11.1813 4.0563C11.2865 3.96297 11.4504 3.98619 11.544 4.09136C11.6375 4.19654 11.6143 4.35975 11.5091 4.45333C11.2863 4.6279 11.064 4.72123 10.83 4.72123ZM11.696 2.88894C11.6492 2.88894 11.5908 2.88894 11.5437 2.87733C11.0875 2.7956 10.8417 2.39882 10.8065 2.35216C10.7362 2.23537 10.7714 2.07192 10.8885 2.00205C11.0056 1.93193 11.1694 1.96699 11.2395 2.08377C11.2863 2.15389 11.4385 2.34055 11.6257 2.37561C11.7544 2.39907 11.8948 2.3524 12.0354 2.22377C12.1408 2.13044 12.3044 2.15365 12.3983 2.25883C12.4918 2.36401 12.4686 2.52722 12.3631 2.62055C12.1522 2.79536 11.9299 2.88894 11.696 2.88894ZM12.9246 4.67457C12.8778 4.67457 12.8193 4.67457 12.7726 4.66296C12.3163 4.58123 12.0705 4.18445 12.0354 4.13779C11.9651 4.021 12.0005 3.85755 12.1289 3.78767C12.246 3.71755 12.4099 3.75286 12.48 3.8694C12.5267 3.93952 12.6787 4.12618 12.8661 4.16124C12.9949 4.18445 13.1352 4.13779 13.2758 4.0094C13.3813 3.91607 13.5449 3.93928 13.6387 4.04446C13.7323 4.14964 13.709 4.31285 13.6036 4.40642C13.381 4.58123 13.1587 4.67457 12.9246 4.67457ZM12.7607 6.40192C12.351 6.40192 12.0351 6.12193 12.0002 6.08687C11.8948 5.99354 11.8948 5.83009 11.9886 5.72515C12.0821 5.61997 12.246 5.61997 12.3512 5.71354C12.4099 5.77181 12.6087 5.90021 12.7958 5.8886C12.9246 5.87699 13.0416 5.78342 13.1469 5.63182C13.2288 5.51503 13.3927 5.49158 13.5095 5.5733C13.6266 5.65503 13.6501 5.81848 13.5682 5.93527C13.3692 6.2155 13.1233 6.37895 12.8426 6.40216H12.7607V6.40192ZM10.0577 6.29699C9.90569 6.29699 9.77697 6.26193 9.648 6.19181C9.23831 5.98169 9.12146 5.51479 9.10983 5.46812C9.07468 5.32789 9.15661 5.18789 9.29722 5.15283C9.43758 5.11801 9.57794 5.19949 9.60146 5.33973C9.62497 5.42146 9.70691 5.64318 9.88242 5.72491C9.99927 5.78318 10.1399 5.77157 10.3154 5.70145C10.4441 5.65479 10.5964 5.71306 10.6548 5.84145C10.7016 5.96984 10.6431 6.12169 10.5144 6.17996C10.3503 6.27377 10.1981 6.29699 10.0577 6.29699ZM13.8724 7.86089C13.4862 7.86089 13.1936 7.62756 13.1587 7.5925C13.0533 7.49917 13.03 7.33572 13.1236 7.23054C13.2172 7.12536 13.3694 7.10215 13.4865 7.19572C13.5449 7.24239 13.7556 7.37078 13.9427 7.33572C14.0715 7.31227 14.1767 7.21894 14.2821 7.05548C14.3524 6.93894 14.516 6.89203 14.6331 6.97376C14.75 7.04388 14.797 7.20709 14.7151 7.32387C14.5396 7.61572 14.3054 7.79077 14.0247 7.83744C13.9779 7.84929 13.9311 7.86089 13.8724 7.86089ZM11.7311 8.10607C11.6843 8.10607 11.6492 8.10607 11.6024 8.09446C11.1459 8.03595 10.8768 7.63917 10.8536 7.5925C10.7716 7.47572 10.8068 7.31227 10.9239 7.24239C11.0407 7.16066 11.2046 7.19572 11.2749 7.31251C11.3217 7.38263 11.4855 7.55769 11.6727 7.59275C11.8014 7.60435 11.9418 7.55769 12.0824 7.42929C12.1876 7.33596 12.3515 7.34757 12.4451 7.45251C12.5386 7.55769 12.527 7.72089 12.4218 7.81447C12.199 8.01274 11.9651 8.10607 11.7311 8.10607ZM11.6373 9.42504C11.5905 9.42504 11.5554 9.42504 11.5086 9.41343C11.0521 9.35492 10.783 8.95814 10.7597 8.91148C10.6778 8.79469 10.713 8.63124 10.83 8.56136C10.9471 8.47964 11.111 8.5147 11.1811 8.63148C11.2279 8.7016 11.3917 8.87666 11.5789 8.91172C11.7076 8.92332 11.848 8.87666 11.9886 8.74827C12.094 8.65493 12.2577 8.66654 12.3512 8.77148C12.4448 8.87666 12.4332 9.03987 12.328 9.13344C12.1054 9.33171 11.8715 9.42504 11.6373 9.42504ZM11.6725 11.024C11.6257 11.024 11.5905 11.024 11.5437 11.0124C11.0875 10.9541 10.8182 10.5573 10.7949 10.5104C10.713 10.3939 10.7481 10.2304 10.8652 10.1603C10.982 10.0786 11.1459 10.1137 11.2162 10.2304C11.263 10.3006 11.4269 10.4756 11.614 10.5104C11.7428 10.522 11.8831 10.4754 12.0237 10.347C12.1292 10.2537 12.2928 10.2653 12.3866 10.3704C12.4802 10.4756 12.4686 10.6388 12.3631 10.7322C12.1406 10.9307 11.9183 11.024 11.6725 11.024ZM9.40219 7.98928C9.3554 7.98928 9.32025 7.98928 9.27346 7.97768C8.81698 7.9194 8.5479 7.52263 8.52462 7.47572C8.44269 7.35917 8.47784 7.19572 8.59493 7.1256C8.71201 7.04388 8.87589 7.07894 8.94595 7.19572C8.99274 7.26584 9.15661 7.4409 9.34376 7.47572C9.47249 7.48732 9.61285 7.44066 9.75345 7.31227C9.85891 7.21894 10.0225 7.23054 10.1164 7.33572C10.2099 7.4409 10.1983 7.60411 10.0928 7.69744C9.88218 7.88435 9.648 7.98928 9.40219 7.98928Z" fill="#F9E39E"/>
</g>
<defs>
<clipPath id="clip0_117_9441">
<rect width="22.2222" height="16.8889" fill="white" transform="translate(0.55542 0.111084)"/>
</clipPath>
</defs>
</svg>
